#Comment line ignore any data following # character 
#Hierarchical Translation and Rotation (.htr) file 
[Header]	
#Header keywords are followed by a single value 
FileType HTR		#Single word string
DataType HTRS		#Translation followed by rotation and scale data
FileVersion 1		#integer
NumSegments 25		#integer
NumFrames 4		#integer
DataFrameRate 30		#integer, data frame rate in this file
EulerRotationOrder ZYX
CalibrationUnits mm
RotationUnits Degrees
GlobalAxisofGravity Y
BoneLengthAxis Y
ScaleFactor 1.00
[SegmentNames&Hierarchy]
#CHILD	PARENT
BN_Tick_Root GLOBAL
BN_Torso BN_Tick_Root
BN_L_Leg_Front01 BN_Torso
BN_L_Leg_Rear01 BN_Torso
BN_MetalTop BN_Torso
BN_Neck BN_Torso
BN_R_Leg_Front01 BN_Torso
BN_R_Leg_Rear01 BN_Torso
BN_Sack BN_Torso
BN_L_Leg_Front02 BN_L_Leg_Front01
BN_L_Leg_Front03 BN_L_Leg_Front02
BN_L_Leg_Rear02 BN_L_Leg_Rear01
BN_L_Leg_Rear03 BN_L_Leg_Rear02
BN_Head BN_Neck
BN_Needle BN_Head
BN_R_Leg_Front02 BN_R_Leg_Front01
BN_R_Leg_Front03 BN_R_Leg_Front02
BN_R_Leg_Rear02 BN_R_Leg_Rear01
BN_R_Leg_Rear03 BN_R_Leg_Rear02
BN_SackDef01 BN_Sack
BN_SackDef02 BN_Sack
BN_SackDef03 BN_Sack
BN_SackDef04 BN_Sack
BN_SackDef05 BN_Sack
BN_SackDef06 BN_Sack
[BasePosition]
#SegmentName Tx, Ty, Tz, Rx, Ry, Rz, BoneLength
BN_Tick_Root 0.000000 0.000000 0.000000 -90.000000 0.000000 0.000000 10.000000 
BN_Torso 0.000000 0.000000 0.000000 0.000000 0.000000 0.000000 10.000000 
BN_L_Leg_Front01 0.000000 0.000000 0.000000 0.000000 0.000000 0.000000 10.000000 
BN_L_Leg_Rear01 0.000000 0.000000 0.000000 0.000000 0.000000 0.000000 10.000000 
BN_MetalTop 0.000000 0.000000 0.000000 0.000000 0.000000 0.000000 10.000000 
BN_Neck 0.000000 0.000000 0.000000 0.000000 0.000000 0.000000 10.000000 
BN_R_Leg_Front01 0.000000 0.000000 0.000000 0.000000 0.000000 0.000000 10.000000 
BN_R_Leg_Rear01 0.000000 0.000000 0.000000 0.000000 0.000000 0.000000 10.000000 
BN_Sack 0.000000 0.000000 0.000000 0.000000 0.000000 0.000000 10.000000 
BN_L_Leg_Front02 0.000000 0.000000 0.000000 0.000000 0.000000 0.000000 10.000000 
BN_L_Leg_Front03 0.000000 0.000000 0.000000 0.000000 0.000000 0.000000 10.000000 
BN_L_Leg_Rear02 0.000000 0.000000 0.000000 0.000000 0.000000 0.000000 10.000000 
BN_L_Leg_Rear03 0.000000 0.000000 0.000000 0.000000 0.000000 0.000000 10.000000 
BN_Head 0.000000 0.000000 0.000000 0.000000 0.000000 0.000000 10.000000 
BN_Needle 0.000000 0.000000 0.000000 0.000000 0.000000 0.000000 10.000000 
BN_R_Leg_Front02 0.000000 0.000000 0.000000 0.000000 0.000000 0.000000 10.000000 
BN_R_Leg_Front03 0.000000 0.000000 0.000000 0.000000 0.000000 0.000000 10.000000 
BN_R_Leg_Rear02 0.000000 0.000000 0.000000 0.000000 0.000000 0.000000 10.000000 
BN_R_Leg_Rear03 0.000000 0.000000 0.000000 0.000000 0.000000 0.000000 10.000000 
BN_SackDef01 0.000000 0.000000 0.000000 0.000000 0.000000 0.000000 10.000000 
BN_SackDef02 0.000000 0.000000 0.000000 0.000000 0.000000 0.000000 10.000000 
BN_SackDef03 0.000000 0.000000 0.000000 0.000000 0.000000 0.000000 10.000000 
BN_SackDef04 0.000000 0.000000 0.000000 0.000000 0.000000 0.000000 10.000000 
BN_SackDef05 0.000000 0.000000 0.000000 0.000000 0.000000 0.000000 10.000000 
BN_SackDef06 0.000000 0.000000 0.000000 0.000000 0.000000 0.000000 10.000000 
#Beginning of Data. Separated by tabs
#Fr	Tx	Ty	Tz	Rx	Ry	Rz	SF
[BN_Tick_Root]
1129 0.000000 0.000000 0.000000 0.000000 0.000000 -0.000020 0.000000
1130 0.000000 0.000000 0.000000 0.000000 0.000000 -0.000020 0.000000
1131 0.000000 0.000000 0.000000 0.000000 0.000000 -0.000020 0.000000
1132 0.000000 0.000000 0.000000 0.000000 0.000000 -0.000020 0.000000
[BN_Torso]
1129 -404.062531 -876.770996 327.043091 25.824406 0.132836 -88.310928 1019.289490
1130 -389.779755 -895.473511 313.839844 31.362928 0.133233 -88.313370 1025.815063
1131 -364.581879 -916.342285 298.674438 37.057346 0.133894 -88.315826 1030.441406
1132 -348.290863 -937.366028 287.483307 27.953669 0.132971 -88.315033 1040.484619
[BN_L_Leg_Front01]
1129 -68.477791 10.734189 -26.804373 45.610023 68.119812 -136.245300 74.316254
1130 -68.477791 10.734189 -26.804373 53.672329 61.975250 -124.602554 74.316254
1131 -68.477791 10.734189 -26.804373 55.177643 53.551624 -115.251640 74.316254
1132 -68.477791 10.734189 -26.804373 42.866253 59.697987 -119.424713 74.316254
[BN_L_Leg_Rear01]
1129 -72.133743 -73.994843 -18.268616 99.750587 52.025051 -125.500237 104.939293
1130 -72.133743 -73.994843 -18.268616 99.126556 42.354904 -122.517670 104.939293
1131 -72.133743 -73.994843 -18.268616 97.213394 30.454773 -120.427284 104.939293
1132 -72.133743 -73.994843 -18.268616 90.014732 35.988808 -123.295311 104.939293
[BN_MetalTop]
1129 0.000008 13.737477 26.403606 76.621445 -32.941395 -94.248344 29.763546
1130 0.000008 13.737477 26.403606 76.705116 -32.115314 -94.348289 29.763546
1131 0.000008 13.737477 26.403606 76.860664 -31.086418 -94.645271 29.763546
1132 0.000008 13.737477 26.403606 77.009514 -30.053686 -94.938965 29.763546
[BN_Neck]
1129 0.000014 95.233284 10.002091 -89.999672 -65.297531 89.999657 95.757088
1130 0.000014 95.233284 10.002091 -89.999672 -65.297531 89.999657 95.757088
1131 0.000014 95.233284 10.002091 -89.999672 -65.297531 89.999657 95.757088
1132 0.000014 95.233284 10.002091 -89.999672 -65.297531 89.999657 95.757088
[BN_R_Leg_Front01]
1129 68.477768 10.734107 -26.804314 -43.154762 65.329506 -48.431198 74.316193
1130 68.477768 10.734107 -26.804314 -50.086910 59.102886 -58.991150 74.316193
1131 68.477768 10.734107 -26.804314 -51.313320 50.792072 -68.453079 74.316193
1132 68.477768 10.734107 -26.804314 -41.345444 57.442112 -66.869041 74.316193
[BN_R_Leg_Rear01]
1129 72.133751 -73.994873 -18.268644 -74.289101 45.428761 -75.006332 104.939331
1130 72.133751 -73.994873 -18.268644 -74.593689 34.511124 -76.822960 104.939331
1131 72.133751 -73.994873 -18.268644 -74.466148 21.766539 -78.359642 104.939331
1132 72.133751 -73.994873 -18.268644 -71.836273 28.607506 -78.064026 104.939331
[BN_Sack]
1129 -0.000000 -78.024918 33.657791 93.879539 0.402365 -100.052277 84.974907
1130 -0.000000 -78.024918 33.657791 93.553970 3.299233 -101.179977 84.974907
1131 -0.000000 -78.024918 33.657791 93.676079 2.024013 -99.847427 84.974907
1132 -0.000000 -78.024918 33.657791 93.739624 -0.484756 -97.332481 84.974907
[BN_L_Leg_Front02]
1129 142.805023 -0.000015 -0.000104 0.197840 0.196533 -82.932320 142.805023
1130 142.805023 -0.000015 -0.000104 0.186776 0.277737 -90.836510 142.805023
1131 142.805023 -0.000015 -0.000104 0.164549 0.380448 -100.661949 142.805023
1132 142.805023 -0.000015 -0.000104 0.136402 0.470062 -109.261543 142.805023
[BN_L_Leg_Front03]
1129 124.143021 -0.000045 0.000007 0.351757 -0.449427 88.251976 124.143021
1130 124.143021 -0.000045 0.000007 0.352567 -0.442796 98.102249 124.143021
1131 124.143021 -0.000045 0.000007 0.355477 -0.423279 109.312531 124.143021
1132 124.143021 -0.000045 0.000007 0.353555 -0.396046 118.144897 124.143021
[BN_L_Leg_Rear02]
1129 139.939041 0.000075 -0.000022 0.105964 -0.226374 88.914543 139.939041
1130 139.939041 0.000075 -0.000022 0.098674 -0.231465 90.815491 139.939041
1131 139.939041 0.000075 -0.000022 0.100619 -0.223766 89.818268 139.939041
1132 139.939041 0.000075 -0.000022 0.112247 -0.228266 87.454720 139.939041
[BN_L_Leg_Rear03]
1129 142.839615 0.000179 -0.000060 0.000336 -0.002323 -106.472321 142.839615
1130 142.839615 0.000179 -0.000060 0.000383 -0.002316 -108.777122 142.839615
1131 142.839615 0.000179 -0.000060 0.000359 -0.002320 -107.574562 142.839615
1132 142.839615 0.000179 -0.000060 0.000300 -0.002328 -104.666832 142.839615
[BN_Head]
1129 57.062447 -0.000030 0.000000 17.404421 23.754629 54.167934 57.062447
1130 57.062447 -0.000030 0.000000 12.663096 20.703609 64.101158 57.062447
1131 57.062447 -0.000030 0.000000 11.460760 16.228212 79.076233 57.062447
1132 57.062447 -0.000030 0.000000 12.986392 15.963858 76.310623 57.062447
[BN_Needle]
1129 34.229614 78.240868 0.000002 0.000003 0.000030 87.896805 85.400810
1130 35.381828 109.613136 0.000150 0.000003 0.000030 87.896805 115.182083
1131 37.669556 171.914337 -0.000148 0.000003 0.000030 87.896805 175.992996
1132 40.534050 249.908859 -0.000153 0.000003 0.000030 87.896805 253.174744
[BN_R_Leg_Front02]
1129 142.804947 -0.000060 0.000060 -0.198678 0.226564 85.652489 142.804947
1130 142.804947 -0.000060 0.000060 -0.183884 0.305697 93.620827 142.804947
1131 142.804947 -0.000060 0.000060 -0.152520 0.411367 103.670258 142.804947
1132 142.804947 -0.000060 0.000060 -0.123123 0.508665 112.780937 142.804947
[BN_R_Leg_Front03]
1129 124.143005 -0.000060 -0.000156 -0.353424 -0.445037 -91.716606 124.143005
1130 124.143005 -0.000060 -0.000156 -0.356253 -0.439191 -101.397858 124.143005
1131 124.143005 -0.000060 -0.000156 -0.351854 -0.415763 -112.515091 124.143005
1132 124.143005 -0.000060 -0.000156 -0.353263 -0.382868 -121.482719 124.143005
[BN_R_Leg_Rear02]
1129 139.939011 -0.000149 0.000015 -0.095204 -0.227248 -91.371498 139.939011
1130 139.939011 -0.000149 0.000015 -0.091334 -0.217184 -91.662086 139.939011
1131 139.939011 -0.000149 0.000015 -0.100889 -0.213090 -88.378349 139.939011
1132 139.939011 -0.000149 0.000015 -0.109614 -0.206865 -85.476547 139.939011
[BN_R_Leg_Rear03]
1129 142.839417 0.000075 0.000119 0.002314 -0.000396 109.449654 142.839417
1130 142.839417 0.000075 0.000119 0.002312 -0.000403 109.792412 142.839417
1131 142.839417 0.000075 0.000119 0.002325 -0.000323 105.813095 142.839417
1132 142.839417 0.000075 0.000119 0.002334 -0.000249 102.164719 142.839417
[BN_SackDef01]
1129 249.782272 -3.760844 42.949425 -128.408218 -44.374973 -11.740845 253.475800
1130 249.782272 -3.760844 42.949425 -128.408218 -44.374973 -11.740845 253.475800
1131 249.782272 -3.760844 42.949425 -128.408218 -44.374973 -11.740845 253.475800
1132 249.782272 -3.760844 42.949425 -128.408218 -44.374973 -11.740845 253.475800
[BN_SackDef02]
1129 138.789795 -62.131748 45.674385 32.077126 -27.375721 -88.781525 158.773758
1130 138.789795 -62.131748 45.674385 32.077126 -27.375721 -88.781525 158.773758
1131 138.789795 -62.131748 45.674385 32.077126 -27.375721 -88.781525 158.773758
1132 138.789795 -62.131748 45.674385 32.077126 -27.375721 -88.781525 158.773758
[BN_SackDef03]
1129 249.782272 -3.760785 -42.949661 18.144459 44.375008 -11.740894 253.475845
1130 249.782272 -3.760785 -42.949661 18.144459 44.375008 -11.740894 253.475845
1131 249.782272 -3.760785 -42.949661 18.144459 44.375008 -11.740894 253.475845
1132 249.782272 -3.760785 -42.949661 18.144459 44.375008 -11.740894 253.475845
[BN_SackDef04]
1129 138.789780 -62.131645 -45.674473 146.059982 27.375723 -88.781555 158.773743
1130 138.789780 -62.131645 -45.674473 146.059982 27.375723 -88.781555 158.773743
1131 138.789780 -62.131645 -45.674473 146.059982 27.375723 -88.781555 158.773743
1132 138.789780 -62.131645 -45.674473 146.059982 27.375723 -88.781555 158.773743
[BN_SackDef05]
1129 118.790161 46.167137 -63.831196 0.155741 51.314110 90.605110 142.537460
1130 118.790161 46.167137 -63.831196 0.155741 51.314110 90.605110 142.537460
1131 118.790161 46.167137 -63.831196 0.155741 51.314110 90.605110 142.537460
1132 118.790161 46.167137 -63.831196 0.155741 51.314110 90.605110 142.537460
[BN_SackDef06]
1129 118.790207 46.167194 63.831219 152.058487 -51.314072 90.605019 142.537537
1130 118.790207 46.167194 63.831219 152.058487 -51.314072 90.605019 142.537537
1131 118.790207 46.167194 63.831219 152.058487 -51.314072 90.605019 142.537537
1132 118.790207 46.167194 63.831219 152.058487 -51.314072 90.605019 142.537537
